<svg id="Lager_1" data-name="Lager 1" xmlns="http://www.w3.org/2000/svg" viewBox="0 0 675.86 124.96"><defs><style>.cls-1{fill:#fff;}.cls-2{fill:#fbba00;}</style></defs><title>xlent-logo-orange-white</title><path class="cls-1" d="M255.27,344.57V236.28H236.89v125H335V344.57Z" transform="translate(-83 -236.28)"/><path class="cls-1" d="M623.63,236.28V253h55.53V361.23h18V253h53.59l8.07-16.68Z" transform="translate(-83 -236.28)"/><path class="cls-1" d="M586.24,236.28v98.66l-96.46-98.66H354.89v125H460.94V344.57H373.18V304.16h59.25l8.81-16.67H373.18V253H481.93c7,7.1,104.84,106.83,105.87,107.87l.38.4h15.38v-125Zm-106.34,125h18V296.84l-18-19.24v83.63Z" transform="translate(-83 -236.28)"/><path class="cls-2" d="M216.19,236.28H193.14L165,270.54l11.91,12.77,39.31-47Zm-109.31,0H83l57,61.06c-1.53,1.78-55.24,63.89-55.24,63.89h23s42.2-48.82,44.08-51l47.25,51h24.07l-116.3-125Z" transform="translate(-83 -236.28)"/></svg>